<?xml version="1.0" encoding="UTF-8"?>
<svg id="Camada_1" data-name="Camada 1" xmlns="http://www.w3.org/2000/svg" viewBox="0 0 1000 1000">
  <defs>
    <style>
      .cls-1 {
        fill: #eee6e4;
      }
    </style>
  </defs>
  <path class="cls-1" d="M839.91,499.65c0-117.58,41.33-225.51,110.26-310.06V57.7c0-5.18-4.2-9.38-9.38-9.38h-348.67l-44.28,180.78c51.73,19.05,87.76,63.13,87.76,121.47,0,74.79-60.63,135.43-135.43,135.43s-135.43-60.63-135.43-135.43c0-58.34,36.89-102.42,88.62-121.47l-45.14-180.78H59.54c-5.18,0-9.38,4.2-9.38,9.38v131.89c68.92,84.55,110.26,192.47,110.26,310.06s-41.33,225.51-110.26,310.06v131.89c0,5.18,4.2,9.38,9.38,9.38h348.67l43.25-180.54c-51.73-19.05-86.73-64.26-86.73-122.6,0-77.04,64.34-139.06,142.21-135.26,72.76,3.55,130.13,65.22,128.61,138.06-1.19,56.99-38.71,101.05-89.61,119.8l46.16,180.54h348.67c5.18,0,9.38-4.2,9.38-9.38v-131.89c-68.92-84.55-110.26-192.47-110.26-310.06Z"/>
</svg>