<?xml version="1.0" encoding="UTF-8"?>
<svg id="Camada_1" data-name="Camada 1" xmlns="http://www.w3.org/2000/svg" viewBox="0 0 1000 154">
  <defs>
    <style>
      .cls-1 {
        fill: #1a1a1a;
      }
    </style>
  </defs>
  <path class="cls-1" d="M134.77,77.02c0-20.07,7.05-38.48,18.82-52.91V1.6c0-.88-.72-1.6-1.6-1.6h-59.5l-7.56,30.85c8.83,3.25,14.98,10.77,14.98,20.73,0,12.76-10.35,23.11-23.11,23.11s-23.11-10.35-23.11-23.11c0-9.96,6.3-17.48,15.12-20.73L61.1,0H1.6C.72,0,0,.72,0,1.6v22.51c11.76,14.43,18.82,32.85,18.82,52.91S11.76,115.5,0,129.93v22.51c0,.88.72,1.6,1.6,1.6h59.5l7.38-30.81c-8.83-3.25-14.8-10.97-14.8-20.92,0-13.15,10.98-23.73,24.27-23.08,12.42.61,22.21,11.13,21.95,23.56-.2,9.72-6.61,17.25-15.29,20.44l7.88,30.81h59.5c.88,0,1.6-.72,1.6-1.6v-22.51c-11.76-14.43-18.82-32.85-18.82-52.91Z"/>
  <g>
    <path class="cls-1" d="M258.04,129.72h-36.49V24.25h36.49c16.22,0,27.3,4.11,33.26,12.32,5.95,8.21,8.93,21.09,8.93,38.65,0,8.93-.59,16.5-1.77,22.71-1.18,6.21-3.26,11.83-6.23,16.86-5.85,9.96-17.24,14.93-34.18,14.93ZM282.52,75.22c0-12.73-1.59-21.92-4.77-27.56-3.18-5.64-9.75-8.47-19.71-8.47h-19.4v75.44h19.4c10.16,0,16.94-3.75,20.32-11.24,1.64-3.8,2.74-7.85,3.31-12.16.56-4.31.85-9.65.85-16.01Z"/>
    <path class="cls-1" d="M365.82,115.86l4.31-.46.31,12.47c-11.7,2.36-22.07,3.54-31.1,3.54-11.39,0-19.58-3.13-24.56-9.39s-7.47-16.27-7.47-30.03c0-27.3,11.14-40.95,33.41-40.95s32.33,11.75,32.33,35.26l-1.08,12.01h-47.73c.1,6.37,1.49,11.03,4.16,14.01,2.67,2.98,7.65,4.47,14.93,4.47s14.78-.31,22.48-.92ZM356.58,85.38c0-7.6-1.21-12.91-3.62-15.94-2.41-3.03-6.49-4.54-12.24-4.54s-9.93,1.59-12.55,4.77c-2.62,3.18-3.98,8.42-4.08,15.7h32.49Z"/>
    <path class="cls-1" d="M426.33,67.05h-21.25v33.87c0,6.26.46,10.42,1.39,12.47.92,2.05,3.29,3.08,7.08,3.08l12.63-.46.77,13.4c-6.88,1.33-12.11,2-15.71,2-8.72,0-14.7-2-17.94-6-3.23-4-4.85-11.55-4.85-22.63v-35.72h-9.86v-14.32h9.86v-22.33h16.63v22.33h21.25v14.32Z"/>
    <path class="cls-1" d="M495.46,76.45v35.11c.1,2.26.69,3.93,1.77,5,1.08,1.08,2.75,1.77,5,2.08l-.46,12.78c-8.83,0-15.65-1.9-20.48-5.69-8.21,3.8-16.47,5.69-24.79,5.69-15.3,0-22.94-8.16-22.94-24.48,0-7.8,2.08-13.44,6.23-16.94,4.16-3.49,10.55-5.59,19.17-6.31l19.86-1.69v-5.54c0-4.1-.9-6.98-2.69-8.62-1.8-1.64-4.44-2.46-7.93-2.46-6.57,0-14.78.41-24.64,1.23l-4.93.31-.62-11.85c11.19-2.67,21.48-4,30.87-4s16.17,2.03,20.32,6.08c4.16,4.06,6.24,10.5,6.24,19.32ZM460.97,95.54c-7.08.62-10.62,4.46-10.62,11.55s3.13,10.62,9.39,10.62c5.13,0,10.57-.82,16.32-2.47l2.77-.92v-20.48l-17.86,1.69Z"/>
    <path class="cls-1" d="M513.16,39.65v-17.71h16.78v17.71h-16.78ZM513.16,129.72V52.74h16.78v76.98h-16.78Z"/>
    <path class="cls-1" d="M549.65,129.72V20.71h16.78v109.01h-16.78Z"/>
    <path class="cls-1" d="M637.26,115.86l4.31-.46.31,12.47c-11.7,2.36-22.07,3.54-31.1,3.54-11.39,0-19.58-3.13-24.56-9.39-4.98-6.26-7.47-16.27-7.47-30.03,0-27.3,11.14-40.95,33.41-40.95s32.33,11.75,32.33,35.26l-1.08,12.01h-47.73c.1,6.37,1.49,11.03,4.16,14.01,2.67,2.98,7.65,4.47,14.93,4.47s14.78-.31,22.48-.92ZM628.02,85.38c0-7.6-1.21-12.91-3.62-15.94-2.41-3.03-6.49-4.54-12.24-4.54s-9.93,1.59-12.55,4.77c-2.62,3.18-3.98,8.42-4.08,15.7h32.49Z"/>
    <path class="cls-1" d="M656.5,129.72V52.74h16.63v9.24c8.72-5.64,17.45-9.29,26.17-10.93v16.78c-8.83,1.75-16.37,4-22.63,6.77l-3.39,1.39v53.73h-16.78Z"/>
    <path class="cls-1" d="M707.62,59.36l6.93-36.18h17.55l-11.7,36.18h-12.78Z"/>
    <path class="cls-1" d="M810.31,129.72v-45.57h-45.58v45.57h-17.09V24.25h17.09v44.96h45.58V24.25h17.24v105.47h-17.24Z"/>
    <path class="cls-1" d="M855.12,96c0,13.65,7.18,20.48,21.56,20.48s21.56-6.82,21.56-20.48V24.25h17.24v71.44c0,12.42-3.26,21.48-9.78,27.18-6.52,5.7-16.22,8.54-29.1,8.54s-22.56-2.84-29.02-8.54c-6.47-5.7-9.7-14.76-9.7-27.18V24.25h17.24v71.75Z"/>
    <path class="cls-1" d="M925.17,24.25h40.03c10.78,0,18.83,2.18,24.17,6.54,5.34,4.37,8.01,11.32,8.01,20.86,0,6.26-1,11.19-3,14.78-2,3.59-5.16,6.57-9.47,8.93,10.06,3.9,15.09,12.06,15.09,24.48,0,19.92-11.19,29.87-33.57,29.87h-41.26V24.25ZM964.28,39.03h-22.02v30.18h22.63c10.06,0,15.09-5.18,15.09-15.55,0-9.75-5.24-14.63-15.7-14.63ZM965.2,83.68h-22.94v31.25h23.25c5.64,0,9.88-1.18,12.7-3.54,2.82-2.36,4.23-6.41,4.23-12.16s-1.64-9.78-4.93-12.09c-3.29-2.31-7.39-3.46-12.32-3.46Z"/>
  </g>
</svg>